# xmcd
#
# Track frame offsets:
#	150
#	15154
#	32712
#	51964
#	71316
#	83975
#	102600
#	120967
#	134110
#	152925
#	172784
#	191718
#	205963
#	223710
#
# Disc length: 3327 seconds
#
# Revision: 1
# Processed by: cddbd v1.5.2PL0 Copyright (c) Steve Scherf et al.
# Submitted via: audiograbber 1.83.01
#
DISCID=c20cfd0e
DTITLE=Santana - Mediaworld
DYEAR=1900
DGENRE=Blues
TTITLE0=Black magic women
TTITLE1=Evil ways
TTITLE2=Jingo-lo-ba
TTITLE3=Oye como va
TTITLE4=Para los rumberos
TTITLE5=She's not there
TTITLE6=Waiting
TTITLE7=Who do you love
TTITLE8=Well all right
TTITLE9=Veracruz
TTITLE10=Hope you are feeling better
TTITLE11=Samba de susalito
TTITLE12=When I look into your eyes
TTITLE13=Guajra
EXTD=
EXTT0=
EXTT1=
EXTT2=
EXTT3=
EXTT4=
EXTT5=
EXTT6=
EXTT7=
EXTT8=
EXTT9=
EXTT10=
EXTT11=
EXTT12=
EXTT13=
PLAYORDER=
